# xmcd
#
# Track frame offsets:
#	150
#	21845
#	42821
#	56127
#	80456
#	100813
#	119356
#	134802
#	151435
#	177386
#	190620
#	206087
#	221043
#	238512
#
# Disc length: 3390 seconds
#
# Revision: 0
# Processed by: cddbd v1.5.2PL0 Copyright (c) Steve Scherf et al.
# Submitted via: EasyCDDAExtractor 12.0.6 .1
#
DISCID=c90d3c0e
DTITLE=Hot Chocolate - Every 1's A Winner
DYEAR=2009
DGENRE=Pop
TTITLE0=Every 1's A Winner
TTITLE1=Confetti Day
TTITLE2=Love Is The Answer One More Time
TTITLE3=Some Times It Hurts To Be A Friend
TTITLE4=So You Win Again
TTITLE5=Stay With Me
TTITLE6=Run Away Girl
TTITLE7=I'm Going To Make You Feel Like A Woman
TTITLE8=Put Your Love In Me
TTITLE9=A Part Of Being With You (Bonus)
TTITLE10=Let Them Be The Judge (Bonus)
TTITLE11=The Power Of Love (Bonus)
TTITLE12=I'll Put You Together Again (Bonus)
TTITLE13=West End Of Park Lane (Bonus)
EXTD=
EXTT0=
EXTT1=
EXTT2=
EXTT3=
EXTT4=
EXTT5=
EXTT6=
EXTT7=
EXTT8=
EXTT9=
EXTT10=
EXTT11=
EXTT12=
EXTT13=
PLAYORDER=
